HIERARCHY
ROOT Hips
{
	OFFSET 0.000000 0.000000 0.000000
	CHANNELS 6 Xposition Yposition Zposition Zrotation Yrotation Xrotation 
	JOINT LHipJoint
	{
		OFFSET 0.000000 0.000000 0.000000
		CHANNELS 3 Zrotation Yrotation Xrotation
		JOINT LeftUpLeg
		{
			OFFSET 1.363060 -1.794630 0.839290
			CHANNELS 3 Zrotation Yrotation Xrotation
			JOINT LeftLeg
			{
				OFFSET 2.448110 -6.726130 0.000000
				CHANNELS 3 Zrotation Yrotation Xrotation
				JOINT LeftFoot
				{
					OFFSET 2.562200 -7.039590 0.000000
					CHANNELS 3 Zrotation Yrotation Xrotation
					JOINT LeftToeBase
					{
						OFFSET 0.157640 -0.433110 2.322550
						CHANNELS 3 Zrotation Yrotation Xrotation
						End Site
						{
							OFFSET 0.000000 0.000000 0.000000
						}
					}
				}
			}
		}
	}
	JOINT RHipJoint
	{
		OFFSET 0.000000 0.000000 0.000000
		CHANNELS 3 Zrotation Yrotation Xrotation
		JOINT RightUpLeg
		{
			OFFSET -1.305520 -1.794630 0.839290
			CHANNELS 3 Zrotation Yrotation Xrotation
			JOINT RightLeg
			{
				OFFSET -2.542530 -6.985550 0.000000
				CHANNELS 3 Zrotation Yrotation Xrotation
				JOINT RightFoot
				{
					OFFSET -2.568260 -7.056230 0.000000
					CHANNELS 3 Zrotation Yrotation Xrotation
					JOINT RightToeBase
					{
						OFFSET -0.164730 -0.452590 2.363150
						CHANNELS 3 Zrotation Yrotation Xrotation
						End Site
						{
							OFFSET 0.000000 0.000000 0.000000
						}
					}
				}
			}
		}
	}
	JOINT LowerBack
	{
		OFFSET 0.000000 0.000000 0.000000
		CHANNELS 3 Zrotation Yrotation Xrotation
		JOINT Spine
		{
			OFFSET 0.028270 2.035590 -0.193380
			CHANNELS 3 Zrotation Yrotation Xrotation
			JOINT Spine1
			{
				OFFSET 0.056720 2.048850 -0.042750
				CHANNELS 3 Zrotation Yrotation Xrotation
				JOINT Neck
				{
					OFFSET 0.000000 0.000000 0.000000
					CHANNELS 3 Zrotation Yrotation Xrotation
					JOINT Neck1
					{
						OFFSET -0.054170 1.746240 0.172020
						CHANNELS 3 Zrotation Yrotation Xrotation
						JOINT Head
						{
							OFFSET 0.104070 1.761360 -0.123970
							CHANNELS 3 Zrotation Yrotation Xrotation
							End Site
							{
								OFFSET 0.000000 0.000000 0.000000
							}
						}
					}
				}
				JOINT LeftShoulder
				{
					OFFSET 0.000000 0.000000 0.000000
					CHANNELS 3 Zrotation Yrotation Xrotation
					JOINT LeftArm
					{
						OFFSET 3.362410 1.200890 -0.311210
						CHANNELS 3 Zrotation Yrotation Xrotation
						JOINT LeftForeArm
						{
							OFFSET 4.983000 -0.000000 -0.000000
							CHANNELS 3 Zrotation Yrotation Xrotation
							JOINT LeftHand
							{
								OFFSET 3.483560 -0.000000 -0.000000
								CHANNELS 3 Zrotation Yrotation Xrotation
								JOINT LeftFingerBase
								{
									OFFSET 0.000000 0.000000 0.000000
									CHANNELS 3 Zrotation Yrotation Xrotation
									JOINT LeftHandIndex1
									{
										OFFSET 0.715260 -0.000000 -0.000000
										CHANNELS 3 Zrotation Yrotation Xrotation
										End Site
										{
											OFFSET 0.000000 0.000000 0.000000
										}
									}
								}
								JOINT LThumb
								{
									OFFSET 0.000000 0.000000 0.000000
									CHANNELS 3 Zrotation Yrotation Xrotation
									End Site
									{
										OFFSET 0.000000 0.000000 0.000000
									}
								}
							}
						}
					}
				}
				JOINT RightShoulder
				{
					OFFSET 0.000000 0.000000 0.000000
					CHANNELS 3 Zrotation Yrotation Xrotation
					JOINT RightArm
					{
						OFFSET -3.136600 1.374050 -0.404650
						CHANNELS 3 Zrotation Yrotation Xrotation
						JOINT RightForeArm
						{
							OFFSET -5.241900 -0.000000 -0.000000
							CHANNELS 3 Zrotation Yrotation Xrotation
							JOINT RightHand
							{
								OFFSET -3.444170 -0.000000 -0.000000
								CHANNELS 3 Zrotation Yrotation Xrotation
								JOINT RightFingerBase
								{
									OFFSET 0.000000 0.000000 0.000000
									CHANNELS 3 Zrotation Yrotation Xrotation
									JOINT RightHandIndex1
									{
										OFFSET -0.622530 -0.000000 -0.000000
										CHANNELS 3 Zrotation Yrotation Xrotation
										End Site
										{
											OFFSET 0.000000 0.000000 0.000000
										}
									}
								}
								JOINT RThumb
								{
									OFFSET 0.000000 0.000000 0.000000
									CHANNELS 3 Zrotation Yrotation Xrotation
									End Site
									{
										OFFSET 0.000000 0.000000 0.000000
									}
								}
							}
						}
					}
				}
			}
		}
	}
}
MOTION
Frames: 10
Frame Time: 0.008333
1.471488 17.306572 26.516513 175.739579 -1.226879 -173.426183 6.559825 0.936357 -2.502269 -31.760644 2.914296 11.048859 5.715854 14.446672 45.782979 2.246190 13.401629 30.120821 0.015400 -0.800100 -2.198800 -12.089246 -2.103512 -0.295255 21.833241 16.619057 -35.743886 -0.150461 -12.982183 29.980901 -1.805263 -17.153669 12.252169 -2.071400 9.013300 -25.836800 -3.728541 -6.494792 -2.909988 1.191034 -9.140805 -4.303037 -0.578767 -4.912732 10.998048 0.700727 4.214801 -26.890929 3.443466 7.151051 10.562714 -2.018800 3.642400 20.785400 11.785118 2.425006 -0.716940 -80.390415 9.931589 64.219372 117.474275 -57.405200 -79.332929 1.531411 -0.735804 21.982837 14.914934 0.214103 0.076600 -7.125000 0.000000 0.000000 -10.512400 30.224100 3.849700 -9.523929 -1.654152 2.099991 86.869417 -48.850606 18.379556 -80.253666 62.456218 -43.359284 0.090940 -1.584956 3.977455 -12.029075 -4.267909 0.574400 7.125000 0.000000 0.000000 11.572500 -32.537800 3.595300 
1.493457 17.177882 26.147887 175.743131 -0.925558 -174.117506 6.507088 0.959401 -2.427673 -31.444328 3.138394 9.703224 6.935900 15.515560 50.393036 2.036127 14.200279 28.943535 0.019600 -0.904600 -2.486300 -11.927830 -2.174679 -0.535992 23.255644 14.688859 -34.780938 -0.744770 -13.626895 32.131577 -1.040124 -13.879709 5.421401 -1.478000 7.681500 -21.750900 -3.864247 -6.136346 -2.385968 1.126999 -8.649762 -4.265443 -0.492842 -4.660859 10.779899 0.550365 4.013094 -26.526107 3.545627 6.944211 10.568906 -1.928100 3.578800 20.624800 11.802278 2.454614 -0.723359 -80.510552 11.032188 63.952595 115.967037 -57.827812 -77.897515 1.532551 -0.693724 22.737261 15.083498 0.495743 0.130000 -7.125000 0.000000 0.000000 -10.394100 30.448900 3.748200 -9.585238 -1.625069 2.134790 87.206325 -48.319357 18.560582 -79.538958 62.506574 -42.756677 0.059847 -1.603602 4.123369 -12.353880 -3.991293 0.522400 7.125000 0.000000 0.000000 11.293500 -32.246700 3.586400 
1.511549 17.055437 25.788845 175.905094 -0.458494 -174.698279 6.462687 0.968869 -2.373125 -31.002625 3.412482 8.189252 8.178905 16.451123 54.836418 1.858966 14.694091 27.907247 0.028200 -1.084900 -2.982600 -11.830139 -2.218121 -0.698119 24.439182 13.690280 -33.916518 -1.412959 -14.458821 35.056454 -0.705409 -12.792397 1.534421 -1.257000 7.107500 -20.034200 -3.795866 -5.780004 -1.855921 1.086903 -8.181793 -4.238941 -0.408158 -4.419340 10.554366 0.450148 3.856654 -26.393916 3.607773 6.823252 10.652053 -1.873500 3.548300 20.701000 11.857295 2.474545 -0.716823 -81.093580 12.156286 63.100912 114.200666 -58.314319 -76.228106 1.495173 -0.651967 23.154599 14.697115 0.778504 0.184000 -7.125000 0.000000 0.000000 -10.685200 30.692600 3.793100 -9.644951 -1.587763 2.127768 87.274681 -47.430502 19.123191 -78.734265 62.507783 -42.087623 0.062235 -1.619859 4.142446 -12.434467 -4.040017 0.533200 7.125000 0.000000 0.000000 11.230200 -32.281000 3.556200 
1.528134 16.947854 25.433789 176.208398 -0.048068 -175.194538 6.437481 0.963825 -2.357654 -30.446247 3.478297 6.676839 9.427997 17.255448 59.092186 1.667755 15.382678 26.845172 0.045700 -1.379800 -3.794400 -11.779605 -2.215135 -0.803127 25.329753 13.551520 -33.223875 -2.040677 -15.236900 37.782957 -0.517222 -12.398721 -1.652533 -1.430200 7.561900 -21.391200 -3.449454 -5.309600 -1.396584 1.013140 -7.554418 -4.169962 -0.568997 -4.085485 10.535012 0.432984 3.656390 -26.618763 3.673696 6.542175 10.640994 -1.840700 3.445400 20.796200 11.904297 2.500198 -0.716195 -81.523689 12.578890 62.448603 111.861145 -58.863475 -74.064293 1.464350 -0.588035 23.541263 14.583344 1.250878 0.279200 -7.125000 0.000000 0.000000 -10.781100 31.111000 3.718200 -9.727186 -1.545321 2.158407 88.036848 -46.250365 19.052095 -78.070312 62.577578 -41.506595 0.078832 -1.654868 4.369121 -12.577237 -4.264989 0.583600 7.125000 0.000000 0.000000 11.121000 -32.476700 3.467000 
1.544610 16.850178 25.079809 176.578613 0.468538 -175.712555 6.407217 0.945724 -2.349804 -29.807314 3.624817 5.130926 10.697403 17.947596 63.256175 1.570799 15.335674 26.176947 0.056300 -1.531300 -4.211900 -11.755581 -2.193692 -0.848681 26.038277 13.852625 -32.880568 -2.714269 -16.060926 40.626791 -0.402206 -12.357084 -4.859405 -1.289600 7.195500 -20.295800 -3.112383 -4.888457 -0.785076 0.971276 -6.938648 -4.129462 -0.587380 -3.728099 10.263381 0.468128 3.605458 -26.498801 3.625742 6.384048 10.494547 -1.921800 3.384800 20.632900 12.007804 2.475989 -0.679528 -82.366289 13.432197 61.339989 109.231579 -59.461961 -71.608939 1.433452 -0.530120 23.926108 14.412493 1.496537 0.320900 -7.125000 0.000000 0.000000 -10.898100 31.303800 3.708500 -9.780588 -1.514677 2.183299 88.467674 -45.055641 19.407520 -77.288735 62.588552 -40.851522 0.083856 -1.693907 4.508989 -12.869792 -4.460828 0.633800 7.125000 0.000000 0.000000 10.897900 -32.641400 3.351100 
1.563779 16.742272 24.743921 177.234788 1.040891 -176.277121 6.369016 0.940550 -2.345933 -28.739242 3.770957 3.464073 12.020033 18.543991 67.447046 1.475172 15.125187 25.486343 0.074200 -1.757400 -4.835700 -11.750459 -2.187916 -0.931730 27.251065 13.835669 -32.395231 -3.397945 -16.790338 43.365796 -0.347930 -12.564657 -7.433653 -1.267800 7.136800 -20.121200 -2.554904 -4.366598 -0.029029 0.941900 -6.274374 -4.033004 -0.481166 -3.396969 10.090810 -0.118756 3.174027 -25.997551 3.802222 5.970103 10.290045 -1.656400 3.155700 20.092900 12.062219 2.496940 -0.619600 -83.367053 13.798259 60.044355 105.688383 -60.174901 -68.343631 1.432057 -0.438889 25.126427 14.872352 2.037270 0.435200 -7.125000 0.000000 0.000000 -10.553500 31.745200 3.473700 -9.913636 -1.476626 2.204147 88.957010 -43.401798 19.677600 -76.257272 62.618432 -40.008551 0.099147 -1.732142 4.617846 -13.050786 -4.670436 0.684200 7.125000 0.000000 0.000000 10.758000 -32.819500 3.259600 
1.581441 16.634904 24.410725 178.085282 1.743389 -176.885225 6.330812 0.931487 -2.351097 -27.429526 3.981370 1.713167 13.364580 19.036635 71.600663 1.282367 14.889735 24.169310 0.080300 -1.827700 -5.029600 -11.768250 -2.192919 -1.025292 28.732067 13.818959 -31.610260 -4.053513 -17.395943 45.858876 -0.338674 -12.607027 -9.526020 -1.134000 6.763100 -19.015500 -1.725330 -3.759088 0.628059 0.911458 -5.484781 -3.902901 -0.688204 -2.992034 10.350867 0.027037 3.125897 -26.970912 3.644779 5.732429 10.072437 -1.858600 3.009600 20.295300 12.189438 2.508074 -0.564640 -84.338640 14.007845 58.653092 103.059919 -60.675780 -65.981623 1.319962 -0.363714 23.092999 13.937522 2.532631 0.525400 -7.125000 0.000000 0.000000 -11.262300 32.253300 3.574300 -9.968087 -1.458935 2.202372 89.576379 -41.334963 20.059816 -75.218617 62.639466 -39.162991 0.139952 -1.791138 4.686446 -13.286941 -5.271713 0.830000 7.125000 0.000000 0.000000 10.602000 -33.375600 3.066000 
1.587902 16.529475 24.089699 178.719917 2.189826 -177.746000 6.286842 0.931733 -2.322483 -26.403800 3.924679 0.188856 14.701747 19.429967 75.651607 1.117245 14.699386 22.993595 0.142000 -2.428300 -6.690800 -11.760755 -2.211587 -1.141495 29.869361 13.375943 -30.472207 -4.681736 -17.818960 48.041433 -0.367397 -12.085344 -10.999085 -1.244100 7.072200 -19.929400 -1.175777 -3.359808 1.734162 0.912697 -4.956009 -3.837532 -0.567161 -2.713753 9.927189 -0.264577 2.943214 -26.372843 3.635128 5.498178 9.811391 -1.821000 2.874300 19.771000 12.316747 2.467895 -0.452122 -85.652613 14.760312 56.478093 98.502420 -61.422152 -61.903070 1.340413 -0.305785 24.380068 14.579659 2.415348 0.503400 -7.125000 0.000000 0.000000 -10.716900 32.057000 3.447300 -10.065653 -1.423624 2.186573 89.529516 -39.549177 21.064023 -74.018587 62.565116 -38.186617 0.123361 -1.801697 4.701284 -13.351295 -4.973909 0.758000 7.125000 0.000000 0.000000 10.520800 -33.064000 3.122400 
1.591025 16.428569 23.773087 179.547140 2.620818 -178.646680 6.244941 0.932424 -2.317640 -25.095078 3.805679 -1.351844 16.019866 19.723301 79.576005 0.885949 14.757762 21.391854 0.147200 -2.472700 -6.813900 -11.773876 -2.234651 -1.300975 31.178763 12.901152 -28.947435 -5.224465 -18.096295 49.846614 -0.425304 -11.501676 -12.510871 -1.390000 7.459100 -21.083000 -0.336965 -2.916542 2.791798 0.910807 -4.326697 -3.673697 -0.678689 -2.378690 10.059105 -0.236912 2.802317 -26.521395 3.557584 5.177053 9.606381 -1.941900 2.720900 19.579400 12.460439 2.477165 -0.323209 -86.861088 14.859406 54.388267 93.631100 -62.060435 -57.713345 1.300280 -0.238567 24.823314 14.720967 2.745296 0.577200 -7.125000 0.000000 0.000000 -10.586200 32.340100 3.330500 -10.155547 -1.427654 2.173974 89.863630 -37.106973 21.773829 -72.722242 62.527148 -37.167003 0.148301 -1.848009 4.865673 -13.525058 -5.338878 0.848300 7.125000 0.000000 0.000000 10.395300 -33.392800 3.000100 
1.592641 16.328308 23.457230 -179.881737 2.896961 -179.528776 6.213495 0.932056 -2.301184 -24.175631 3.391373 -2.918394 17.275732 19.949357 83.279074 0.686895 14.951862 19.996764 0.189900 -2.806400 -7.740200 -11.755670 -2.251083 -1.480870 32.083503 12.223169 -27.266119 -5.714114 -18.252445 51.369370 -0.521739 -10.785348 -14.240512 -1.480100 7.686800 -21.766600 0.316198 -2.547567 3.887114 0.882085 -3.748772 -3.526270 -0.871110 -2.070969 10.354735 -0.192518 2.673127 -27.704306 3.644233 4.992546 9.565515 -1.892000 2.618500 20.047400 12.577891 2.538251 -0.244357 -87.903639 14.498799 52.394758 88.008935 -62.490223 -53.099737 1.207675 -0.125690 24.646504 14.795517 4.017597 0.881000 -7.125000 0.000000 0.000000 -10.583200 33.575700 3.008300 -10.289941 -1.362069 2.125802 90.321084 -34.266365 22.429600 -71.104577 62.442677 -35.919246 0.171399 -1.901254 5.109314 -13.721003 -5.680601 0.935100 7.125000 0.000000 0.000000 10.246300 -33.692800 2.880300 
